<?xml version="1.0" encoding="utf-8"?>
<!-- Generator: Adobe Illustrator 15.1.0, SVG Export Plug-In . SVG Version: 6.00 Build 0)  -->
<!DOCTYPE svg PUBLIC "-//W3C//DTD SVG 1.1//EN" "http://www.w3.org/Graphics/SVG/1.1/DTD/svg11.dtd">
<svg version="1.1" id="Layer_1" xmlns="http://www.w3.org/2000/svg" xmlns:xlink="http://www.w3.org/1999/xlink" x="0px" y="0px"
	 width="120px" height="40px" viewBox="0 0 120 40" enable-background="new 0 0 120 40" xml:space="preserve">
<g>
	<g>
		<path fill="#6E6E71" d="M115.273,40H4.726C2.12,40,0,37.883,0,35.281V4.721C0,2.118,2.12,0,4.726,0h110.547
			C117.879,0,120,2.118,120,4.721v30.56C120,37.883,117.879,40,115.273,40L115.273,40z"/>
		
			<linearGradient id="SVGID_1_" gradientUnits="userSpaceOnUse" x1="60.001" y1="571.8896" x2="60.001" y2="610.1055" gradientTransform="matrix(1 0 0 1 0 -571)">
			<stop  offset="0.4294" style="stop-color:#FFFFFF"/>
			<stop  offset="0.534" style="stop-color:#F7F7F7"/>
			<stop  offset="0.6947" style="stop-color:#E2E2E2"/>
			<stop  offset="0.8906" style="stop-color:#BFBFBF"/>
			<stop  offset="0.9509" style="stop-color:#B3B3B3"/>
		</linearGradient>
		<path fill="url(#SVGID_1_)" d="M119.109,35.281c0,2.113-1.715,3.824-3.836,3.824H4.726c-2.117,0-3.833-1.711-3.833-3.824V4.721
			c0-2.112,1.716-3.831,3.833-3.831h110.547c2.121,0,3.836,1.718,3.836,3.831V35.281z"/>
		<path fill="#242424" d="M10.57,25.816l21.692-12.565h0.236v-2.027c0-2.6-2.108-4.707-4.706-4.707H10.377
			c-2.6,0-4.707,2.107-4.707,4.707v15.44c0.346,0,0.948,0,1.964,0C9.249,26.664,10.57,25.816,10.57,25.816z"/>
		
			<linearGradient id="SVGID_2_" gradientUnits="userSpaceOnUse" x1="-1617.6382" y1="1834.125" x2="-1617.6382" y2="1848.3403" gradientTransform="matrix(0.9513 -0.3083 0.3083 0.9513 985.8118 -2230.4844)">
			<stop  offset="0" style="stop-color:#259E49"/>
			<stop  offset="1" style="stop-color:#1A6E38"/>
		</linearGradient>
		<path fill="url(#SVGID_2_)" stroke="#000000" stroke-width="0.1834" stroke-miterlimit="10" d="M18.13,12.601l4.161,12.838
			c0.241,0.744-0.166,1.541-0.91,1.78l-7.908,2.565c-0.744,0.24-1.542-0.167-1.783-0.911L7.528,16.036
			c-0.241-0.743,0.167-1.542,0.911-1.783l7.908-2.562C17.09,11.45,17.888,11.857,18.13,12.601z"/>
		<path fill="#17582C" d="M12.456,18.532l-0.037,0.012l0.029,0.092l2.251-0.729l-0.03-0.092l-0.244,0.079
			c0.095-0.182,0.539-1.147,0.063-2.613c-0.055-0.168-0.273-0.295-0.433-0.242l-2.946,0.954c-0.158,0.052-0.289,0.274-0.233,0.446
			c0.028,0.088,0.06,0.174,0.091,0.255c-0.375,0.176-0.569,0.606-0.438,1.011c0.142,0.437,0.61,0.676,1.047,0.533
			c0.105-0.033,0.198-0.086,0.278-0.153C12.134,18.358,12.372,18.491,12.456,18.532z M11.501,17.921
			c-0.253,0.082-0.524-0.056-0.606-0.309c-0.072-0.223,0.026-0.46,0.224-0.57c0.162,0.334,0.342,0.599,0.519,0.81
			C11.598,17.88,11.551,17.905,11.501,17.921z"/>
		<path fill="#17582C" d="M14.979,17.876l-2.972,0.964c-0.107,0.036-0.165,0.153-0.129,0.263c0.036,0.109,0.151,0.172,0.258,0.138
			l2.971-0.964c0.107-0.035,0.165-0.152,0.129-0.263C15.201,17.903,15.085,17.844,14.979,17.876z"/>
		
			<linearGradient id="SVGID_3_" gradientUnits="userSpaceOnUse" x1="17.6118" y1="581.4775" x2="18.6621" y2="592.72" gradientTransform="matrix(1 0 0 1 0 -571)">
			<stop  offset="0" style="stop-color:#F7E150"/>
			<stop  offset="0.3431" style="stop-color:#F6DE4D"/>
			<stop  offset="0.6394" style="stop-color:#F3D346"/>
			<stop  offset="0.9175" style="stop-color:#EEC139"/>
			<stop  offset="0.9939" style="stop-color:#ECBB34"/>
		</linearGradient>
		<path fill="url(#SVGID_3_)" stroke="#000000" stroke-width="0.1834" stroke-miterlimit="10" d="M23.575,14.902
			c-0.363,0.037-0.687-0.228-0.724-0.591s0.227-0.687,0.59-0.724c0.006,0,0.012,0,0.019-0.001l-0.231-2.261
			c-0.079-0.779-0.774-1.345-1.552-1.266l-8.27,0.843c-0.778,0.08-1.344,0.775-1.265,1.553l0.231,2.262
			c0.359-0.032,0.679,0.23,0.716,0.59c0.036,0.36-0.224,0.683-0.583,0.723l1.005,9.852c0.079,0.779,0.774,1.345,1.553,1.267
			l8.271-0.844c0.777-0.08,1.344-0.773,1.265-1.554L23.593,14.9C23.587,14.9,23.581,14.902,23.575,14.902z"/>
		<path fill="#AA8E30" d="M19.13,14.418c0,0,0.184-0.599,0.153-0.892c-0.004-0.043-0.041-0.078-0.083-0.074l-0.08,0.008
			c-0.051,0.006-0.077,0.049-0.1,0.106c-0.016,0.039-0.371,0.771-0.371,0.771l-1.318,0.079c0,0,0.173-1.849,0.184-1.905
			c0.018-0.088,0.004-0.162-0.114-0.15c-0.148,0.016-0.221,0.072-0.273,0.177c-0.009,0.019-0.074,0.167-0.166,0.374l-0.458,0.047
			c-0.065,0.007-0.112,0.064-0.105,0.13c0.006,0.064,0.064,0.111,0.129,0.106l0.326-0.034c-0.07,0.158-0.145,0.33-0.218,0.497
			l-0.581,0.059c-0.065,0.006-0.112,0.064-0.105,0.129c0.006,0.064,0.064,0.111,0.129,0.105l0.447-0.047
			c-0.11,0.248-0.203,0.451-0.242,0.534l-0.387,0.04c-0.872,0.09-1.145,0.209-1.111,0.542c0.034,0.335,0.371,0.386,1.248,0.296
			l0.338-0.035c0.059,0.077,0.189,0.258,0.344,0.475l-0.448,0.046c-0.064,0.006-0.112,0.063-0.105,0.13
			c0.007,0.064,0.064,0.111,0.13,0.104l0.581-0.059c0.105,0.148,0.214,0.303,0.314,0.442l-0.327,0.032
			c-0.064,0.008-0.111,0.064-0.105,0.129c0.007,0.065,0.064,0.113,0.129,0.106l0.458-0.047c0.132,0.187,0.226,0.319,0.239,0.335
			c0.072,0.092,0.156,0.133,0.303,0.118c0.118-0.012,0.116-0.088,0.081-0.171c-0.022-0.052-0.562-1.81-0.562-1.81l1.308-0.189
			c0,0,0.491,0.626,0.515,0.663c0.033,0.049,0.067,0.088,0.119,0.082l0.082-0.008c0.042-0.006,0.07-0.047,0.065-0.091
			c-0.03-0.294-0.329-0.84-0.329-0.84L19.13,14.418z"/>
		
			<linearGradient id="SVGID_4_" gradientUnits="userSpaceOnUse" x1="654.1582" y1="-108.5234" x2="654.1582" y2="-97.3693" gradientTransform="matrix(0.9887 0.1498 -0.1498 0.9887 -637.9337 19.1602)">
			<stop  offset="0" style="stop-color:#35A2DB"/>
			<stop  offset="0.8937" style="stop-color:#2E74BA"/>
		</linearGradient>
		<path fill="url(#SVGID_4_)" stroke="#000000" stroke-width="0.1834" stroke-miterlimit="10" d="M29.221,10.302l-3.004-0.456
			c-0.083,0.544-0.625,0.912-1.211,0.823c-0.587-0.088-0.996-0.601-0.914-1.172L21.01,9.03c-0.773-0.09-1.497,0.467-1.615,1.24
			l-2.016,13.314c-0.118,0.771,0.413,1.493,1.186,1.609l8.212,1.244c0.773,0.117,1.494-0.414,1.61-1.188l2.017-13.314
			C30.521,11.165,29.995,10.419,29.221,10.302z"/>
		<polygon fill="#1C5E93" points="21.897,14.765 21.893,14.763 21.887,14.763 		"/>
		<path fill="#1C5E93" d="M22.857,13.802l-0.613-0.338l0.015-0.072c0.012-0.086-0.045-0.167-0.13-0.182
			c-0.086-0.011-0.165,0.049-0.178,0.135l-0.188,1.236c-0.013,0.086,0.044,0.166,0.13,0.182c0.085,0.011,0.166-0.049,0.179-0.135
			l0.014-0.093l0.687-0.146L22.857,13.802z"/>
		<path fill="#1C5E93" d="M25.881,15.04l0.136-0.902c0.014-0.088-0.044-0.168-0.133-0.206l-2.692-0.409
			c-0.089,0.012-0.167,0.071-0.18,0.159l-0.137,0.903c-0.013,0.089,0.044,0.167,0.132,0.18l0.721,0.11l-0.956,0.685l-0.047,0.31
			l0.311,0.048l1.292-0.952l0.058,0.009l0.951,1.293l0.312,0.047l0.047-0.312l-0.711-0.936l0.716,0.107
			C25.789,15.187,25.868,15.129,25.881,15.04z"/>
		<path fill="#1C5E93" d="M26.378,13.003c0.07-0.461-0.247-0.891-0.708-0.961c-0.461-0.068-0.891,0.248-0.961,0.708
			c-0.032,0.211,0.018,0.413,0.124,0.581L24.37,13.26c0.151-0.127,0.259-0.308,0.291-0.52c0.07-0.463-0.247-0.894-0.706-0.964
			c-0.46-0.068-0.89,0.248-0.96,0.711c-0.069,0.455,0.237,0.88,0.686,0.959l0,0l0.02,0.004c0.001,0,0.001,0,0.002,0s0.001,0,0.002,0
			l1.692,0.258c0.007,0,0.015,0.001,0.022,0.002c0.007,0.002,0.014,0.004,0.021,0.004h0.001l0,0
			C25.893,13.77,26.31,13.456,26.378,13.003z"/>
		<path fill="#242424" d="M8.159,27.686c1.613,0,2.934-0.846,2.934-0.846l21.404-12.4v-1.188h-0.236L10.57,25.816
			c0,0-1.321,0.848-2.935,0.848c-1.017,0-1.618,0-1.964,0v1.021C6.2,27.686,6.987,27.686,8.159,27.686z"/>
		
			<radialGradient id="SVGID_5_" cx="21.5991" cy="593.5029" r="10.6631" gradientTransform="matrix(1 0 0 1 0 -571)" gradientUnits="userSpaceOnUse">
			<stop  offset="0" style="stop-color:#30302F"/>
			<stop  offset="1" style="stop-color:#242424"/>
		</radialGradient>
		<path fill="url(#SVGID_5_)" d="M8.159,27.686c-1.172,0-1.959,0-2.489,0v0.953c0,2.601,2.107,4.706,4.707,4.706h17.414
			c2.598,0,4.706-2.105,4.706-4.706v-14.2l-21.404,12.4C11.093,26.84,9.772,27.686,8.159,27.686z"/>
		<path fill="#454647" d="M5.84,11.356c0-0.799,0.203-1.552,0.559-2.208c0.785-1.444,2.211-2.425,3.969-2.425h17.377
			c1.774,0,3.185,0.998,3.963,2.463c0.344,0.646,0.539,1.386,0.539,2.17c-0.515-4.311-4.319-4.387-4.319-4.387s-14.403,0-17.782,0
			C10.147,6.97,6.356,7.188,5.84,11.356z"/>
		<path fill="#171718" d="M5.84,28.458c0,0.8,0.203,1.551,0.559,2.209c0.785,1.442,2.211,2.426,3.969,2.426h17.377
			c1.774,0,3.185-1,3.963-2.464c0.344-0.646,0.539-1.386,0.539-2.171c-0.515,4.31-4.319,4.39-4.319,4.39s-14.403,0-17.782,0
			C10.147,32.848,6.356,32.627,5.84,28.458z"/>
		<g>
			<path fill="#231F20" d="M47.602,23.062c0,1.218-0.359,2.192-1.077,2.928c-0.927,0.955-2.279,1.434-4.055,1.434
				c-0.522,0-0.927-0.031-1.214-0.098v5.128h-2.122V19.388c1.009-0.184,2.162-0.275,3.458-0.275c1.677,0,2.94,0.36,3.792,1.08
				C47.195,20.9,47.602,21.855,47.602,23.062z M45.5,23.159c0-0.772-0.248-1.365-0.744-1.777c-0.495-0.413-1.187-0.618-2.073-0.618
				c-0.587,0-1.062,0.038-1.428,0.117v4.755c0.3,0.078,0.71,0.117,1.232,0.117c0.939,0,1.675-0.229,2.21-0.688
				C45.232,24.607,45.5,23.973,45.5,23.159z"/>
			<path fill="#231F20" d="M55.775,32.453h-1.906l-0.157-1.102h-0.059c-0.655,0.879-1.585,1.315-2.79,1.315
				c-0.904,0-1.631-0.288-2.181-0.862c-0.498-0.523-0.747-1.174-0.747-1.945c0-1.166,0.488-2.058,1.464-2.672
				c0.976-0.615,2.348-0.918,4.116-0.904v-0.178c0-1.256-0.662-1.887-1.984-1.887c-0.943,0-1.775,0.235-2.495,0.707l-0.433-1.395
				c0.891-0.553,1.984-0.825,3.281-0.825c2.502,0,3.753,1.315,3.753,3.949v3.517C55.638,31.13,55.684,31.891,55.775,32.453z
				 M53.575,29.172v-1.474c-2.345-0.039-3.517,0.603-3.517,1.926c0,0.498,0.137,0.871,0.41,1.12
				c0.273,0.249,0.619,0.373,1.036,0.373c0.469,0,0.902-0.146,1.299-0.442c0.397-0.295,0.642-0.671,0.733-1.13
				C53.562,29.439,53.575,29.316,53.575,29.172z"/>
			<path fill="#231F20" d="M63.969,29.702c0,0.892-0.328,1.604-0.982,2.142s-1.561,0.807-2.711,0.807
				c-1.087,0-2.01-0.217-2.77-0.647l0.452-1.569c0.733,0.443,1.513,0.668,2.338,0.668c1.087,0,1.63-0.399,1.63-1.199
				c0-0.354-0.116-0.646-0.354-0.875c-0.233-0.229-0.653-0.455-1.256-0.678c-1.703-0.629-2.554-1.547-2.554-2.75
				c0-0.826,0.314-1.515,0.943-2.062c0.629-0.551,1.46-0.825,2.495-0.825c0.942,0,1.747,0.188,2.415,0.569l-0.45,1.513
				c-0.615-0.366-1.265-0.55-1.945-0.55c-0.444,0-0.793,0.105-1.041,0.314c-0.249,0.209-0.373,0.479-0.373,0.805
				c0,0.328,0.13,0.597,0.393,0.807c0.223,0.196,0.655,0.412,1.297,0.648C63.143,27.443,63.969,28.405,63.969,29.702z"/>
			<path fill="#231F20" d="M71.77,29.702c0,0.892-0.328,1.604-0.981,2.142c-0.655,0.537-1.562,0.807-2.712,0.807
				c-1.088,0-2.012-0.217-2.771-0.647l0.451-1.569c0.732,0.443,1.514,0.668,2.338,0.668c1.088,0,1.631-0.399,1.631-1.199
				c0-0.354-0.117-0.646-0.354-0.875c-0.234-0.229-0.655-0.455-1.258-0.678c-1.702-0.629-2.555-1.547-2.555-2.75
				c0-0.826,0.313-1.515,0.942-2.062c0.628-0.551,1.46-0.825,2.495-0.825c0.941,0,1.748,0.188,2.416,0.569l-0.451,1.513
				c-0.615-0.366-1.266-0.55-1.943-0.55c-0.445,0-0.793,0.105-1.041,0.314c-0.25,0.209-0.375,0.479-0.375,0.805
				c0,0.328,0.131,0.597,0.395,0.807c0.223,0.196,0.654,0.412,1.297,0.648C70.943,27.443,71.77,28.405,71.77,29.702z"/>
			<path fill="#231F20" d="M82.85,27.541c0,1.611-0.445,2.896-1.336,3.852c-0.785,0.854-1.748,1.276-2.889,1.276
				c-1.361,0-2.363-0.562-3.006-1.688h-0.04l-0.117,1.475h-1.808c0.052-0.771,0.078-1.631,0.078-2.574V18.522h2.121v5.776
				c0.633-1.062,1.652-1.591,3.062-1.591c1.159,0,2.104,0.441,2.836,1.326S82.85,26.087,82.85,27.541z M80.688,27.62
				c0-0.931-0.209-1.69-0.627-2.279c-0.459-0.642-1.082-0.963-1.867-0.963c-0.522,0-0.994,0.17-1.414,0.511
				c-0.42,0.342-0.7,0.793-0.846,1.355c-0.053,0.223-0.078,0.445-0.078,0.668v1.67c0,0.654,0.22,1.219,0.658,1.689
				c0.438,0.473,0.984,0.707,1.641,0.707c0.8,0,1.422-0.302,1.865-0.902C80.465,29.475,80.688,28.654,80.688,27.62z"/>
			<path fill="#231F20" d="M93.4,27.6c0,1.469-0.42,2.674-1.258,3.615c-0.877,0.971-2.043,1.454-3.498,1.454
				c-1.4,0-2.519-0.465-3.351-1.396s-1.248-2.104-1.248-3.519c0-1.479,0.431-2.69,1.287-3.635c0.856-0.94,2.015-1.414,3.469-1.414
				c1.4,0,2.527,0.465,3.38,1.396C92.994,25.007,93.4,26.173,93.4,27.6z M91.2,27.648c0-0.875-0.19-1.625-0.57-2.252
				c-0.444-0.758-1.08-1.139-1.905-1.139c-0.852,0-1.5,0.381-1.945,1.139c-0.379,0.627-0.568,1.391-0.568,2.291
				c0,0.875,0.189,1.627,0.568,2.254c0.459,0.758,1.103,1.137,1.928,1.137c0.812,0,1.445-0.387,1.904-1.156
				C91.004,29.282,91.2,28.523,91.2,27.648z"/>
			<path fill="#231F20" d="M103.99,27.6c0,1.469-0.42,2.674-1.258,3.615c-0.877,0.971-2.043,1.454-3.498,1.454
				c-1.4,0-2.519-0.465-3.351-1.396s-1.247-2.104-1.247-3.519c0-1.479,0.43-2.69,1.286-3.635c0.856-0.94,2.015-1.414,3.47-1.414
				c1.399,0,2.526,0.465,3.379,1.396C103.584,25.007,103.99,26.173,103.99,27.6z M101.79,27.648c0-0.875-0.19-1.625-0.569-2.252
				c-0.445-0.758-1.08-1.139-1.906-1.139c-0.852,0-1.5,0.381-1.943,1.139c-0.38,0.627-0.57,1.391-0.57,2.291
				c0,0.875,0.19,1.627,0.57,2.254c0.458,0.758,1.102,1.137,1.926,1.137c0.812,0,1.447-0.387,1.905-1.156
				C101.594,29.282,101.79,28.523,101.79,27.648z"/>
			<path fill="#231F20" d="M114.129,32.453h-2.593l-2.89-4.362l-0.807,0.982v3.38h-2.122V18.522h2.122v8.646h0.039
				c0.264-0.419,0.52-0.786,0.768-1.102l2.457-3.162h2.533l-3.518,3.93L114.129,32.453z"/>
		</g>
		<g>
			<path fill="#6E6E71" d="M44.998,15.576h-1.332l-0.729-2.293H40.4l-0.695,2.293h-1.297l2.513-7.807h1.552L44.998,15.576z
				 M42.716,12.321l-0.66-2.039c-0.069-0.208-0.201-0.699-0.394-1.471h-0.023c-0.077,0.333-0.201,0.823-0.371,1.471l-0.648,2.039
				H42.716z"/>
			<path fill="#6E6E71" d="M50.871,15.576h-1.112l-0.058-0.903h-0.035c-0.355,0.687-0.958,1.031-1.807,1.031
				c-0.68,0-1.243-0.267-1.691-0.799c-0.448-0.533-0.672-1.224-0.672-2.073c0-0.911,0.244-1.648,0.734-2.212
				c0.474-0.525,1.056-0.788,1.747-0.788c0.761,0,1.293,0.255,1.596,0.765V7.364h1.251v6.695
				C50.824,14.607,50.839,15.113,50.871,15.576z M49.573,13.202v-0.938c0-0.163-0.012-0.293-0.035-0.394
				c-0.07-0.301-0.221-0.554-0.454-0.759c-0.232-0.205-0.512-0.307-0.837-0.307c-0.465,0-0.832,0.185-1.099,0.556
				c-0.267,0.371-0.401,0.846-0.401,1.425c0,0.556,0.128,1.008,0.384,1.355c0.271,0.371,0.636,0.556,1.093,0.556
				c0.411,0,0.74-0.154,0.989-0.463C49.453,13.947,49.573,13.603,49.573,13.202z"/>
			<path fill="#6E6E71" d="M57.345,15.576h-1.111l-0.059-0.903h-0.034c-0.355,0.687-0.958,1.031-1.807,1.031
				c-0.68,0-1.243-0.267-1.691-0.799c-0.448-0.533-0.672-1.224-0.672-2.073c0-0.911,0.244-1.648,0.734-2.212
				c0.474-0.525,1.056-0.788,1.747-0.788c0.762,0,1.294,0.255,1.597,0.765V7.364H57.3v6.695
				C57.299,14.607,57.314,15.113,57.345,15.576z M56.048,13.202v-0.938c0-0.163-0.012-0.293-0.035-0.394
				c-0.069-0.301-0.221-0.554-0.453-0.759c-0.233-0.205-0.512-0.307-0.838-0.307c-0.465,0-0.832,0.185-1.099,0.556
				c-0.267,0.371-0.401,0.846-0.401,1.425c0,0.556,0.128,1.008,0.384,1.355c0.271,0.371,0.636,0.556,1.093,0.556
				c0.411,0,0.74-0.154,0.989-0.463C55.928,13.947,56.048,13.603,56.048,13.202z"/>
			<path fill="#6E6E71" d="M64.329,10.885h-1.378v2.733c0,0.695,0.242,1.042,0.729,1.042c0.225,0,0.409-0.019,0.557-0.058
				l0.035,0.95c-0.248,0.092-0.57,0.139-0.974,0.139c-0.493,0-0.881-0.15-1.157-0.452c-0.279-0.301-0.418-0.807-0.418-1.518v-2.837
				H60.9V9.947h0.822V8.916l1.229-0.371v1.401h1.378V10.885z"/>
			<path fill="#6E6E71" d="M70.422,12.715c0,0.865-0.247,1.575-0.74,2.131c-0.519,0.571-1.205,0.857-2.062,0.857
				c-0.826,0-1.483-0.274-1.976-0.822c-0.492-0.548-0.734-1.24-0.734-2.074c0-0.872,0.253-1.586,0.759-2.143
				s1.188-0.834,2.044-0.834c0.826,0,1.49,0.274,1.992,0.822C70.184,11.186,70.422,11.874,70.422,12.715z M69.124,12.744
				c0-0.516-0.11-0.958-0.336-1.328c-0.263-0.447-0.638-0.67-1.123-0.67c-0.502,0-0.886,0.223-1.146,0.67
				c-0.227,0.37-0.336,0.82-0.336,1.351c0,0.516,0.109,0.959,0.336,1.329c0.27,0.446,0.646,0.669,1.135,0.669
				c0.479,0,0.854-0.227,1.123-0.681C69.009,13.707,69.124,13.26,69.124,12.744z"/>
		</g>
	</g>
	
		<linearGradient id="SVGID_6_" gradientUnits="userSpaceOnUse" x1="6.0635" y1="19.9805" x2="32.2225" y2="19.9805" gradientTransform="matrix(1 0 0 -1 0 41)">
		<stop  offset="0.0224" style="stop-color:#292929"/>
		<stop  offset="0.0294" style="stop-color:#2C2C2C"/>
		<stop  offset="0.0824" style="stop-color:#3C3C3D"/>
		<stop  offset="0.148" style="stop-color:#474748"/>
		<stop  offset="0.2404" style="stop-color:#4D4D4F"/>
		<stop  offset="0.4969" style="stop-color:#4F4F51"/>
		<stop  offset="0.7484" style="stop-color:#4D4D4F"/>
		<stop  offset="0.839" style="stop-color:#474748"/>
		<stop  offset="0.9036" style="stop-color:#3B3B3D"/>
		<stop  offset="0.9554" style="stop-color:#2B2B2C"/>
		<stop  offset="0.9795" style="stop-color:#212121"/>
	</linearGradient>
	<path fill="url(#SVGID_6_)" d="M8.159,27.686H5.67V27.58h2.489c1.58,0,2.893-0.829,2.906-0.836l21.376-12.39l0.052,0.091
		L11.12,26.833C11.108,26.84,9.77,27.686,8.159,27.686z"/>
	
		<linearGradient id="SVGID_7_" gradientUnits="userSpaceOnUse" x1="6.0806" y1="21.0352" x2="32.2748" y2="21.0352" gradientTransform="matrix(1 0 0 -1 0 41)">
		<stop  offset="0.0224" style="stop-color:#292929"/>
		<stop  offset="0.0294" style="stop-color:#2C2C2C"/>
		<stop  offset="0.0824" style="stop-color:#3C3C3D"/>
		<stop  offset="0.148" style="stop-color:#474748"/>
		<stop  offset="0.2404" style="stop-color:#4D4D4F"/>
		<stop  offset="0.4969" style="stop-color:#4F4F51"/>
		<stop  offset="0.7484" style="stop-color:#4D4D4F"/>
		<stop  offset="0.839" style="stop-color:#474748"/>
		<stop  offset="0.9036" style="stop-color:#3B3B3D"/>
		<stop  offset="0.9554" style="stop-color:#2B2B2C"/>
		<stop  offset="0.9795" style="stop-color:#212121"/>
	</linearGradient>
	<path fill="url(#SVGID_7_)" d="M7.626,26.725H5.662V26.62h1.965c1.58,0,2.893-0.829,2.906-0.839l21.706-12.575h0.25v0.105h-0.222
		l-21.68,12.56C10.576,25.88,9.237,26.725,7.626,26.725z"/>
</g>
</svg>
